<svg width="353" height="303" viewBox="0 0 353 303" fill="none" xmlns="http://www.w3.org/2000/svg">
<rect x="28.4849" width="214.412" height="52.2755" rx="26.1378" transform="rotate(33.0175 28.4849 0)" fill="#DDBDBD"/>
<path d="M37.6997 34.9872L35.8974 36.7844L37.8091 38.0268L36.2148 40.4802L33.7772 38.8962L31.6675 40.9921L29.1184 39.3356L31.2282 37.2397L28.5836 35.5211L26.4738 37.617L23.9248 35.9605L26.0345 33.8646L23.6766 32.3324L25.271 29.8789L28.1546 31.7528L29.9569 29.9557L27.6469 28.4545L29.2412 26.001L32.0611 27.8335L34.1032 25.8069L36.6522 27.4634L34.6102 29.49L37.2548 31.2086L39.2969 29.182L41.8459 30.8385L39.8039 32.8651L41.7794 34.1489L40.185 36.6023L37.6997 34.9872ZM35.1506 33.3308L32.506 31.6122L30.7037 33.4093L33.3483 35.1279L35.1506 33.3308ZM41.1428 47.3081C40.3249 46.7767 39.6784 46.1677 39.203 45.4811C38.7277 44.7946 38.4626 44.0634 38.4079 43.2876C38.3637 42.5187 38.5691 41.7609 39.0241 41.0143L41.9237 42.8985C41.697 43.3403 41.6333 43.7521 41.7326 44.1339C41.8389 44.5051 42.0885 44.8184 42.4815 45.0738C42.8851 45.336 43.2624 45.4528 43.6134 45.4241C43.9713 45.3848 44.2572 45.2005 44.4712 44.8712C44.6506 44.5951 44.7034 44.3046 44.6296 43.9998C44.5663 43.7019 44.4346 43.4048 44.2344 43.1085C44.0448 42.8192 43.7487 42.4379 43.3462 41.9648C42.7689 41.2725 42.3243 40.6663 42.0126 40.1465C41.7008 39.6267 41.5218 39.0421 41.4755 38.3926C41.4293 37.7432 41.6339 37.068 42.0894 36.367C42.7658 35.3262 43.6709 34.7587 44.8046 34.6646C45.9452 34.5598 47.1209 34.9009 48.3317 35.6877C49.5637 36.4883 50.3635 37.4311 50.7311 38.5159C51.1056 39.5901 50.9777 40.6702 50.3476 41.7562L47.4002 39.8409C47.6136 39.4659 47.6638 39.0982 47.5506 38.7377C47.4444 38.3665 47.2001 38.0567 46.8177 37.8082C46.4885 37.5942 46.1643 37.512 45.8451 37.5614C45.5329 37.6002 45.2698 37.7842 45.0559 38.1135C44.8212 38.4746 44.8082 38.8665 45.017 39.2891C45.2257 39.7118 45.6153 40.2746 46.1856 40.9776C46.7491 41.6912 47.1814 42.3045 47.4826 42.8174C47.7943 43.3373 47.9768 43.9166 48.03 44.5554C48.0832 45.1942 47.8923 45.8482 47.4575 46.5173C47.0434 47.1546 46.5026 47.6264 45.8351 47.9329C45.1783 48.2463 44.4418 48.3568 43.6256 48.2645C42.8094 48.1722 41.9818 47.8534 41.1428 47.3081ZM61.8282 47.9479L47.7317 57.436L44.8003 55.5311L49.7798 52.3317L51.7436 41.3944L54.7865 43.3719L53.2285 50.2675L58.8809 46.0326L61.8282 47.9479ZM60.5701 59.9555C59.7947 59.4516 59.1906 58.8702 58.7578 58.2113C58.3249 57.5524 58.0816 56.8807 58.0279 56.1962C57.9811 55.5011 58.1228 54.853 58.4531 54.2518L61.1455 56.0015C60.9772 56.3302 60.9584 56.673 61.0891 57.0298C61.2197 57.3866 61.4709 57.6858 61.8427 57.9274C62.1825 58.1483 62.4842 58.2536 62.7476 58.2435C63.0285 58.2297 63.2379 58.1165 63.376 57.9041C63.5416 57.6492 63.5296 57.3771 63.34 57.0877C63.1573 56.7877 62.8169 56.3701 62.3188 55.8349C61.7781 55.2721 61.3471 54.773 61.0258 54.3376C60.7114 53.8915 60.5141 53.3932 60.4339 52.8426C60.3605 52.2813 60.5206 51.6979 60.914 51.0925C61.2453 50.5827 61.6836 50.2104 62.2289 49.9757C62.7917 49.7372 63.4234 49.6718 64.1238 49.7795C64.8348 49.8941 65.5674 50.1965 66.3215 50.6865C67.4367 51.4112 68.1335 52.2568 68.4119 53.2232C68.7008 54.1965 68.5963 55.171 68.0984 56.1465L65.5812 54.5107C65.7388 54.1751 65.7595 53.8411 65.6432 53.5087C65.5375 53.1832 65.2988 52.8996 64.927 52.6581C64.6084 52.451 64.3227 52.356 64.0699 52.373C63.8241 52.3794 63.6321 52.4888 63.4941 52.7012C63.3284 52.9561 63.337 53.2336 63.5197 53.5336C63.713 53.8405 64.055 54.244 64.5457 54.7442C65.0938 55.3421 65.5197 55.8605 65.8235 56.2997C66.1342 56.7282 66.3228 57.2284 66.3892 57.8002C66.4732 58.3684 66.3203 58.964 65.9306 59.5869C65.5924 60.1073 65.14 60.478 64.5735 60.699C64.0244 60.9162 63.3978 60.9622 62.6937 60.837C62.0002 60.7187 61.2923 60.4248 60.5701 59.9555ZM72.376 64.1606L70.8748 66.4707L69.4888 65.57C68.501 64.9281 67.8863 64.1887 67.6446 63.3519C67.4098 62.5044 67.6479 61.5337 68.3588 60.4397L70.6571 56.9029L69.5738 56.1989L71.0439 53.9366L72.1273 54.6406L73.5353 52.4739L76.2596 54.2443L74.8516 56.411L76.6359 57.5705L75.1658 59.8328L73.3814 58.6733L71.0624 62.242C70.8898 62.5075 70.8293 62.7401 70.8808 62.9397C70.9324 63.1394 71.1068 63.3358 71.4042 63.5291L72.376 64.1606ZM83.754 68.3142C83.5884 68.5691 83.3999 68.8243 83.1886 69.0797L77.023 65.0731C76.7066 65.653 76.6058 66.1918 76.7205 66.6893C76.8528 67.1831 77.1473 67.5784 77.604 67.8752C78.2838 68.317 78.9428 68.3373 79.581 67.9363L82.4805 69.8206C81.9522 70.3081 81.3397 70.6579 80.6431 70.8698C79.957 71.0887 79.2357 71.141 78.4789 71.027C77.7222 70.9129 76.9828 70.6212 76.2605 70.1518C75.3896 69.5859 74.7351 68.8961 74.2969 68.0827C73.8587 67.2692 73.6728 66.3931 73.739 65.4542C73.8053 64.5154 74.1387 63.5839 74.7391 62.6599C75.3396 61.7359 76.05 61.0495 76.8704 60.6007C77.7014 60.1588 78.5776 59.9728 79.4989 60.0428C80.4202 60.1128 81.3216 60.4342 82.2032 61.0071C83.0635 61.5662 83.7109 62.2437 84.1453 63.0396C84.5798 63.8356 84.7655 64.6889 84.7024 65.5996C84.6499 66.5172 84.3338 67.4221 83.754 68.3142ZM81.4319 65.7855C81.7356 65.3182 81.8178 64.8429 81.6786 64.3597C81.5395 63.8765 81.2309 63.4796 80.7529 63.169C80.2962 62.8722 79.8223 62.7531 79.3311 62.8115C78.8506 62.8769 78.4143 63.1297 78.0225 63.57L81.4319 65.7855ZM99.3919 72.2224C100.497 72.9402 101.155 73.8442 101.368 74.9343C101.592 76.0314 101.317 77.1747 100.544 78.3643L97.1693 83.558L94.4609 81.7979L97.5979 76.9707C97.9706 76.3971 98.103 75.8563 97.9952 75.3481C97.9048 74.8362 97.5941 74.4077 97.0631 74.0626C96.532 73.7175 96.009 73.6042 95.4939 73.7227C94.9964 73.8374 94.5612 74.1816 94.1885 74.7551L91.0516 79.5824L88.3432 77.8224L91.4802 72.9951C91.8529 72.4216 91.9853 71.8807 91.8774 71.3726C91.7871 70.8607 91.4764 70.4322 90.9454 70.0871C90.4143 69.742 89.8913 69.6287 89.3762 69.7471C88.8786 69.8619 88.4435 70.206 88.0708 70.7796L84.9338 75.6068L82.2095 73.8365L87.9865 64.9467L90.7108 66.717L89.9861 67.8322C90.5038 67.6399 91.0547 67.5825 91.6389 67.66C92.2299 67.7268 92.8069 67.9432 93.3698 68.309C94.0389 68.7438 94.5405 69.2737 94.8746 69.8987C95.2193 70.5305 95.3678 71.2086 95.3201 71.9329C95.9456 71.6445 96.6239 71.5189 97.3551 71.5559C98.0864 71.593 98.7653 71.8152 99.3919 72.2224ZM102.608 87.2737C101.833 86.7699 101.229 86.1885 100.796 85.5295C100.363 84.8706 100.12 84.1989 100.066 83.5144C100.019 82.8193 100.161 82.1712 100.491 81.57L103.184 83.3197C103.015 83.6484 102.997 83.9912 103.127 84.348C103.258 84.7048 103.509 85.004 103.881 85.2456C104.221 85.4665 104.522 85.5719 104.786 85.5617C105.067 85.5479 105.276 85.4348 105.414 85.2223C105.58 84.9674 105.568 84.6953 105.378 84.4059C105.196 84.1059 104.855 83.6883 104.357 83.1531C103.816 82.5903 103.385 82.0912 103.064 81.6558C102.75 81.2098 102.552 80.7114 102.472 80.1608C102.399 79.5995 102.559 79.0162 102.952 78.4108C103.283 77.901 103.722 77.5287 104.267 77.2939C104.83 77.0554 105.462 76.99 106.162 77.0977C106.873 77.2124 107.606 77.5147 108.36 78.0047C109.475 78.7294 110.172 79.575 110.45 80.5414C110.739 81.5147 110.635 82.4892 110.137 83.4647L107.619 81.8289C107.777 81.4933 107.798 81.1593 107.681 80.8269C107.576 80.5014 107.337 80.2179 106.965 79.9763C106.647 79.7692 106.361 79.6742 106.108 79.6912C105.862 79.6976 105.67 79.807 105.532 80.0195C105.367 80.2744 105.375 80.5518 105.558 80.8518C105.751 81.1587 106.093 81.5623 106.584 82.0624C107.132 82.6603 107.558 83.1788 107.862 83.6179C108.172 84.0464 108.361 84.5466 108.427 85.1185C108.511 85.6866 108.358 86.2822 107.969 86.9051C107.631 87.4255 107.178 87.7962 106.612 88.0172C106.063 88.2345 105.436 88.2805 104.732 88.1552C104.038 88.0369 103.33 87.743 102.608 87.2737ZM117.79 93.6728L116.289 95.9829L114.903 95.0822C113.915 94.4403 113.301 93.7009 113.059 92.864C112.824 92.0166 113.062 91.0459 113.773 89.9519L116.071 86.4151L114.988 85.7111L116.458 83.4488L117.542 84.1528L118.95 81.9861L121.674 83.7565L120.266 85.9232L122.05 87.0827L120.58 89.345L118.796 88.1854L116.477 91.7541C116.304 92.0196 116.244 92.2522 116.295 92.4519C116.347 92.6515 116.521 92.848 116.819 93.0413L117.79 93.6728ZM129.11 91.5347C130.13 92.1973 130.727 93.0686 130.901 94.1487C131.082 95.2181 130.79 96.3423 130.024 97.5212L126.649 102.715L123.94 100.955L127.077 96.1276C127.464 95.5329 127.61 94.9708 127.516 94.4414C127.422 93.9119 127.115 93.4781 126.594 93.1399C126.074 92.8017 125.553 92.6972 125.031 92.8263C124.509 92.9554 124.054 93.3173 123.668 93.9121L120.531 98.7394L117.807 96.969L125.468 85.1796L128.192 86.95L125.531 91.0444C126.063 90.8309 126.644 90.7626 127.273 90.8395C127.903 90.9164 128.515 91.1482 129.11 91.5347ZM136.289 95.0217C135.811 94.7111 135.508 94.3176 135.38 93.8413C135.269 93.3613 135.348 92.9142 135.617 92.4999C135.893 92.0751 136.269 91.8212 136.746 91.7383C137.241 91.6517 137.727 91.7637 138.205 92.0743C138.672 92.378 138.961 92.7699 139.072 93.2499C139.201 93.7262 139.127 94.1768 138.851 94.6016C138.582 95.0158 138.2 95.2662 137.706 95.3529C137.229 95.4357 136.757 95.3253 136.289 95.0217ZM137.043 96.8257L131.266 105.716L128.542 103.945L134.319 95.0553L137.043 96.8257ZM144.496 101.533C145.537 102.209 146.145 103.088 146.319 104.168C146.511 105.244 146.224 106.372 145.457 107.551L142.082 112.744L139.374 110.984L142.511 106.157C142.897 105.562 143.044 105 142.95 104.471C142.856 103.941 142.548 103.508 142.028 103.169C141.508 102.831 140.986 102.727 140.464 102.856C139.942 102.985 139.488 103.347 139.102 103.942L135.965 108.769L133.24 106.998L139.017 98.1087L141.742 99.879L140.976 101.058C141.507 100.844 142.079 100.778 142.691 100.859C143.31 100.929 143.912 101.153 144.496 101.533ZM149.408 117.505L149.122 112.017L146.7 115.745L143.976 113.975L151.637 102.185L154.361 103.956L150.127 110.472L155.169 108.605L158.531 110.789L151.936 112.848L152.786 119.7L149.408 117.505ZM161.571 111.451C161.093 111.14 160.79 110.747 160.662 110.271C160.551 109.791 160.63 109.344 160.899 108.929C161.175 108.504 161.551 108.251 162.028 108.168C162.523 108.081 163.009 108.193 163.487 108.504C163.954 108.807 164.243 109.199 164.354 109.679C164.483 110.156 164.409 110.606 164.133 111.031C163.864 111.445 163.482 111.696 162.988 111.782C162.511 111.865 162.039 111.755 161.571 111.451ZM162.325 113.255L156.548 122.145L153.824 120.374L159.601 111.485L162.325 113.255ZM169.778 117.962C170.819 118.639 171.427 119.517 171.601 120.597C171.793 121.673 171.506 122.801 170.74 123.98L167.364 129.174L164.656 127.414L167.793 122.586C168.18 121.992 168.326 121.43 168.232 120.9C168.138 120.371 167.83 119.937 167.31 119.599C166.79 119.261 166.268 119.156 165.746 119.285C165.224 119.414 164.77 119.776 164.384 120.371L161.247 125.198L158.522 123.428L164.299 114.538L167.024 116.308L166.258 117.487C166.789 117.274 167.361 117.207 167.973 117.288C168.592 117.358 169.194 117.583 169.778 117.962ZM178.495 123.582C179.121 123.989 179.586 124.472 179.887 125.03C180.2 125.596 180.349 126.168 180.334 126.748L181.152 125.49L183.877 127.26L178.11 136.134C177.578 136.952 176.934 137.583 176.177 138.028C175.424 138.49 174.585 138.7 173.66 138.658C172.746 138.623 171.795 138.284 170.808 137.643C169.491 136.787 168.627 135.78 168.216 134.622C167.799 133.474 167.877 132.331 168.45 131.193L171.142 132.943C171.006 133.338 171.036 133.735 171.23 134.133C171.418 134.542 171.745 134.898 172.212 135.202C172.775 135.568 173.328 135.693 173.872 135.578C174.418 135.48 174.923 135.075 175.386 134.364L176.204 133.105C175.669 133.347 175.082 133.448 174.442 133.41C173.809 133.361 173.179 133.133 172.552 132.726C171.819 132.25 171.276 131.633 170.923 130.875C170.577 130.106 170.453 129.262 170.551 128.344C170.667 127.422 171.021 126.505 171.615 125.591C172.208 124.678 172.899 123.986 173.688 123.517C174.487 123.054 175.305 122.83 176.141 122.845C176.977 122.86 177.762 123.105 178.495 123.582ZM178.264 129.935C178.705 129.255 178.863 128.594 178.736 127.953C178.62 127.318 178.29 126.825 177.749 126.473C177.207 126.121 176.617 126.017 175.98 126.162C175.36 126.303 174.829 126.713 174.387 127.393C173.945 128.072 173.779 128.735 173.888 129.38C174.015 130.021 174.35 130.518 174.891 130.87C175.433 131.222 176.017 131.322 176.645 131.171C177.282 131.027 177.822 130.614 178.264 129.935Z" fill="black" fill-opacity="0.78"/>
<rect x="197.27" y="139.668" width="146.774" height="52.2755" rx="26.1378" transform="rotate(-21.7282 197.27 139.668)" fill="#ECE2D7"/>
<path d="M240.617 148.569L241.044 151.079L243.162 150.235L244.245 152.953L241.545 154.029L242.039 156.961L239.215 158.087L238.721 155.154L235.791 156.322L236.285 159.254L233.461 160.38L232.967 157.447L230.355 158.488L229.272 155.77L232.466 154.497L232.039 151.988L229.48 153.008L228.397 150.29L231.521 149.045L231.044 146.207L233.868 145.082L234.345 147.919L237.275 146.752L236.798 143.914L239.622 142.789L240.099 145.626L242.287 144.754L243.37 147.472L240.617 148.569ZM237.793 149.695L234.863 150.863L235.29 153.372L238.22 152.204L237.793 149.695ZM254.228 142.368C254.514 143.086 254.612 143.81 254.521 144.542C254.426 145.261 254.11 145.94 253.573 146.576C253.036 147.213 252.262 147.733 251.25 148.136L249.379 148.882L251.151 153.33L248.133 154.533L243.195 142.142L248.084 140.194C249.073 139.8 249.976 139.638 250.795 139.707C251.613 139.776 252.313 140.043 252.893 140.507C253.473 140.971 253.918 141.591 254.228 142.368ZM250.064 145.827C250.64 145.598 251.016 145.291 251.19 144.908C251.365 144.525 251.354 144.086 251.157 143.592C250.96 143.098 250.666 142.772 250.276 142.614C249.886 142.455 249.402 142.491 248.826 142.721L247.184 143.375L248.422 146.482L250.064 145.827ZM256.578 145.44C256.174 144.429 256.009 143.465 256.08 142.55C256.164 141.631 256.453 140.834 256.948 140.159C257.443 139.485 258.096 138.986 258.908 138.662C259.602 138.386 260.264 138.285 260.895 138.361C261.537 138.433 262.09 138.642 262.556 138.988L262 137.594L265.018 136.391L268.943 146.24L265.925 147.442L265.369 146.048C265.258 146.624 264.994 147.159 264.577 147.652C264.172 148.141 263.622 148.524 262.928 148.8C262.128 149.119 261.316 149.204 260.493 149.055C259.665 148.894 258.905 148.508 258.212 147.898C257.526 147.272 256.981 146.452 256.578 145.44ZM263.962 142.518C263.662 141.765 263.214 141.255 262.617 140.989C262.031 140.717 261.439 140.701 260.838 140.94C260.238 141.18 259.813 141.601 259.563 142.205C259.32 142.793 259.349 143.464 259.649 144.217C259.949 144.97 260.394 145.488 260.984 145.771C261.581 146.037 262.18 146.051 262.78 145.812C263.38 145.573 263.799 145.153 264.037 144.554C264.288 143.95 264.263 143.271 263.962 142.518ZM268.312 133.892C267.782 134.103 267.286 134.124 266.823 133.954C266.367 133.767 266.047 133.445 265.864 132.986C265.677 132.515 265.687 132.061 265.894 131.624C266.109 131.17 266.481 130.838 267.01 130.627C267.528 130.42 268.015 130.41 268.471 130.597C268.934 130.767 269.26 131.087 269.447 131.558C269.63 132.017 269.614 132.473 269.399 132.927C269.192 133.364 268.829 133.686 268.312 133.892ZM270.22 134.318L274.145 144.167L271.127 145.369L267.202 135.521L270.22 134.318ZM278.366 130.949C279.519 130.489 280.587 130.5 281.569 130.981C282.559 131.446 283.314 132.331 283.835 133.637L286.128 139.391L283.127 140.587L280.996 135.239C280.733 134.58 280.359 134.136 279.872 133.907C279.386 133.679 278.854 133.679 278.277 133.909C277.701 134.139 277.315 134.504 277.119 135.005C276.923 135.505 276.956 136.085 277.219 136.744L279.35 142.092L276.332 143.295L272.407 133.446L275.425 132.243L275.946 133.55C276.078 132.992 276.354 132.487 276.773 132.033C277.188 131.568 277.719 131.207 278.366 130.949ZM292.694 133.809L293.714 136.368L292.179 136.98C291.084 137.416 290.126 137.491 289.303 137.205C288.475 136.908 287.82 136.153 287.337 134.941L285.775 131.023L284.575 131.501L283.576 128.995L284.777 128.517L283.82 126.116L286.838 124.913L287.795 127.314L289.772 126.526L290.77 129.032L288.794 129.82L290.369 133.774C290.486 134.068 290.641 134.252 290.834 134.325C291.027 134.398 291.288 134.369 291.618 134.238L292.694 133.809ZM292.58 124.22C292.051 124.431 291.555 124.452 291.091 124.282C290.635 124.096 290.316 123.773 290.133 123.314C289.945 122.843 289.955 122.389 290.163 121.952C290.378 121.499 290.75 121.166 291.279 120.955C291.797 120.749 292.284 120.739 292.74 120.925C293.203 121.095 293.528 121.416 293.716 121.886C293.899 122.345 293.883 122.801 293.668 123.255C293.461 123.692 293.098 124.014 292.58 124.22ZM294.489 124.646L298.414 134.495L295.395 135.698L291.47 125.849L294.489 124.646ZM302.635 121.277C303.788 120.818 304.856 120.828 305.838 121.31C306.828 121.774 307.583 122.66 308.103 123.966L310.397 129.72L307.396 130.915L305.265 125.567C305.002 124.908 304.628 124.465 304.141 124.236C303.654 124.007 303.123 124.008 302.546 124.237C301.97 124.467 301.583 124.832 301.388 125.333C301.192 125.834 301.225 126.414 301.488 127.073L303.619 132.421L300.601 133.623L296.676 123.775L299.694 122.572L300.215 123.878C300.347 123.321 300.623 122.815 301.042 122.362C301.457 121.897 301.988 121.535 302.635 121.277ZM312.255 117.403C312.949 117.126 313.611 117.026 314.241 117.102C314.883 117.173 315.437 117.382 315.902 117.728L315.347 116.334L318.365 115.131L322.283 124.962C322.644 125.868 322.787 126.759 322.713 127.634C322.656 128.516 322.343 129.322 321.775 130.053C321.219 130.779 320.394 131.36 319.3 131.796C317.841 132.378 316.52 132.502 315.337 132.169C314.159 131.847 313.271 131.124 312.672 129.999L315.655 128.81C315.899 129.149 316.24 129.354 316.678 129.425C317.12 129.508 317.6 129.447 318.117 129.24C318.741 128.992 319.163 128.612 319.382 128.102C319.618 127.599 319.579 126.953 319.264 126.165L318.709 124.771C318.597 125.347 318.342 125.885 317.941 126.386C317.536 126.874 316.986 127.257 316.292 127.534C315.48 127.857 314.663 127.944 313.84 127.795C313.012 127.634 312.251 127.249 311.558 126.639C310.872 126.012 310.328 125.193 309.924 124.181C309.521 123.169 309.355 122.206 309.427 121.291C309.51 120.371 309.8 119.574 310.294 118.9C310.789 118.225 311.443 117.726 312.255 117.403ZM317.309 121.258C317.009 120.505 316.56 119.995 315.963 119.729C315.378 119.458 314.785 119.442 314.185 119.681C313.585 119.92 313.16 120.342 312.91 120.946C312.667 121.534 312.695 122.204 312.995 122.957C313.296 123.71 313.741 124.228 314.331 124.511C314.928 124.778 315.526 124.791 316.126 124.552C316.727 124.313 317.146 123.894 317.384 123.294C317.634 122.69 317.609 122.011 317.309 121.258Z" fill="black" fill-opacity="0.78"/>
<rect x="88.9497" y="193" width="220.664" height="52.2755" rx="26.1378" transform="rotate(15.4754 88.9497 193)" fill="#E9EE8A"/>
<path d="M107.439 223.349L106.262 225.606L108.46 226.215L107.679 229.035L104.877 228.259L103.497 230.893L100.568 230.082L101.948 227.448L98.9079 226.606L97.528 229.24L94.5982 228.429L95.9781 225.795L93.2681 225.045L94.0488 222.225L97.3631 223.142L98.5399 220.886L95.8848 220.15L96.6656 217.331L99.9066 218.228L101.243 215.68L104.173 216.491L102.836 219.039L105.876 219.881L107.212 217.333L110.142 218.144L108.806 220.692L111.076 221.32L110.296 224.14L107.439 223.349ZM104.509 222.538L101.47 221.697L100.293 223.954L103.333 224.795L104.509 222.538ZM122.626 222.349L121.932 224.858L118.526 223.915L115.661 234.261L112.53 233.394L115.395 223.048L111.989 222.105L112.683 219.597L122.626 222.349ZM131.731 233.032C131.649 233.325 131.547 233.625 131.422 233.932L124.336 231.97C124.209 232.619 124.275 233.163 124.534 233.603C124.809 234.034 125.209 234.322 125.734 234.467C126.515 234.683 127.15 234.504 127.638 233.93L130.97 234.852C130.614 235.476 130.135 235.994 129.535 236.406C128.946 236.822 128.274 237.089 127.518 237.209C126.763 237.328 125.97 237.273 125.139 237.043C124.138 236.766 123.306 236.305 122.643 235.662C121.98 235.018 121.539 234.239 121.319 233.324C121.099 232.408 121.137 231.42 121.431 230.358C121.725 229.296 122.195 228.427 122.842 227.752C123.501 227.08 124.281 226.639 125.18 226.428C126.08 226.217 127.036 226.252 128.049 226.532C129.038 226.806 129.86 227.257 130.514 227.885C131.168 228.513 131.602 229.27 131.817 230.158C132.043 231.049 132.014 232.007 131.731 233.032ZM128.754 231.321C128.903 230.784 128.838 230.306 128.56 229.887C128.281 229.468 127.868 229.183 127.318 229.031C126.793 228.885 126.305 228.915 125.855 229.118C125.416 229.326 125.077 229.698 124.836 230.236L128.754 231.321ZM132.714 233.482C133.008 232.42 133.479 231.551 134.126 230.876C134.785 230.204 135.558 229.761 136.445 229.547C137.345 229.336 138.295 229.369 139.296 229.646C140.578 230.001 141.553 230.632 142.222 231.54C142.903 232.452 143.208 233.555 143.139 234.85L139.806 233.927C139.742 233.068 139.307 232.527 138.501 232.304C137.927 232.145 137.407 232.244 136.94 232.602C136.477 232.946 136.13 233.534 135.9 234.364C135.67 235.194 135.664 235.882 135.881 236.429C136.101 236.963 136.498 237.309 137.072 237.468C137.877 237.691 138.529 237.451 139.026 236.747L142.358 237.67C141.759 238.792 140.931 239.575 139.875 240.018C138.819 240.462 137.656 240.508 136.386 240.157C135.385 239.879 134.553 239.419 133.89 238.776C133.24 238.135 132.804 237.358 132.584 236.443C132.377 235.531 132.42 234.544 132.714 233.482ZM152.149 233.244C153.321 233.568 154.153 234.219 154.645 235.197C155.14 236.162 155.2 237.322 154.825 238.677L153.172 244.646L150.059 243.784L151.595 238.236C151.784 237.552 151.754 236.972 151.505 236.496C151.256 236.02 150.832 235.698 150.234 235.533C149.636 235.367 149.107 235.425 148.649 235.705C148.19 235.986 147.866 236.468 147.676 237.151L146.14 242.699L143.009 241.833L146.761 228.282L149.892 229.149L148.589 233.855C149.031 233.491 149.565 233.251 150.188 233.135C150.812 233.018 151.466 233.055 152.149 233.244ZM164.433 236.645C165.629 236.976 166.473 237.63 166.965 238.608C167.472 239.576 167.538 240.738 167.163 242.093L165.51 248.062L162.398 247.2L163.934 241.652C164.123 240.969 164.093 240.388 163.844 239.912C163.594 239.436 163.171 239.115 162.573 238.949C161.974 238.783 161.446 238.841 160.987 239.121C160.528 239.402 160.204 239.884 160.015 240.567L158.479 246.116L155.348 245.249L158.177 235.031L161.308 235.898L160.933 237.253C161.375 236.889 161.9 236.653 162.508 236.546C163.12 236.426 163.761 236.459 164.433 236.645ZM172.297 250.099C171.296 249.822 170.452 249.358 169.764 248.708C169.089 248.061 168.629 247.276 168.385 246.354C168.153 245.436 168.184 244.446 168.478 243.384C168.769 242.334 169.256 241.476 169.94 240.811C170.626 240.134 171.432 239.693 172.356 239.489C173.28 239.285 174.242 239.321 175.243 239.598C176.244 239.876 177.089 240.339 177.776 240.99C178.463 241.64 178.928 242.432 179.168 243.366C179.413 244.288 179.389 245.274 179.099 246.324C178.808 247.374 178.313 248.236 177.614 248.909C176.93 249.575 176.12 250.007 175.184 250.208C174.26 250.412 173.298 250.376 172.297 250.099ZM173.047 247.389C173.645 247.554 174.213 247.475 174.749 247.15C175.298 246.829 175.686 246.26 175.912 245.442C176.139 244.624 176.105 243.938 175.812 243.383C175.531 242.832 175.091 242.474 174.493 242.308C173.883 242.139 173.315 242.219 172.791 242.547C172.27 242.863 171.894 243.436 171.664 244.266C171.438 245.084 171.459 245.766 171.728 246.314C172.009 246.865 172.449 247.223 173.047 247.389ZM186.228 239.209L182.477 252.76L179.345 251.893L183.097 238.342L186.228 239.209ZM189.356 254.822C188.355 254.545 187.511 254.081 186.824 253.431C186.148 252.784 185.689 251.999 185.444 251.077C185.213 250.159 185.244 249.169 185.538 248.107C185.828 247.057 186.315 246.199 186.999 245.534C187.686 244.857 188.491 244.416 189.415 244.212C190.339 244.008 191.302 244.044 192.303 244.322C193.304 244.599 194.148 245.062 194.835 245.713C195.523 246.363 195.987 247.155 196.228 248.089C196.472 249.011 196.449 249.997 196.158 251.047C195.867 252.097 195.372 252.959 194.673 253.633C193.99 254.298 193.18 254.731 192.244 254.931C191.32 255.136 190.357 255.099 189.356 254.822ZM190.107 252.112C190.705 252.278 191.272 252.198 191.809 251.874C192.358 251.552 192.745 250.983 192.972 250.165C193.198 249.347 193.165 248.661 192.872 248.106C192.59 247.555 192.151 247.197 191.552 247.032C190.942 246.863 190.375 246.942 189.85 247.27C189.329 247.586 188.954 248.159 188.724 248.989C188.497 249.807 188.519 250.489 188.787 251.037C189.069 251.588 189.508 251.946 190.107 252.112ZM203.156 247.326C203.876 247.526 204.465 247.846 204.921 248.288C205.389 248.733 205.703 249.234 205.865 249.791L206.265 248.345L209.396 249.212L206.573 259.411C206.312 260.351 205.888 261.147 205.3 261.799C204.721 262.467 203.984 262.92 203.09 263.159C202.208 263.401 201.2 263.365 200.064 263.051C198.551 262.631 197.424 261.932 196.683 260.951C195.939 259.983 195.669 258.87 195.873 257.612L198.967 258.469C198.957 258.886 199.104 259.256 199.41 259.577C199.712 259.91 200.131 260.151 200.668 260.3C201.315 260.479 201.88 260.432 202.364 260.158C202.856 259.9 203.215 259.362 203.441 258.544L203.842 257.098C203.405 257.489 202.876 257.763 202.254 257.92C201.636 258.064 200.966 258.036 200.246 257.837C199.404 257.604 198.7 257.179 198.135 256.562C197.573 255.934 197.2 255.167 197.017 254.262C196.849 253.348 196.911 252.366 197.202 251.316C197.492 250.266 197.943 249.399 198.553 248.714C199.176 248.032 199.888 247.572 200.69 247.334C201.492 247.096 202.314 247.093 203.156 247.326ZM204.851 253.454C205.067 252.672 205.018 251.995 204.704 251.422C204.401 250.852 203.939 250.481 203.316 250.308C202.694 250.136 202.1 250.215 201.536 250.545C200.987 250.866 200.604 251.417 200.388 252.198C200.172 252.98 200.213 253.661 200.512 254.244C200.826 254.817 201.295 255.19 201.917 255.362C202.54 255.535 203.127 255.454 203.679 255.121C204.244 254.791 204.634 254.235 204.851 253.454ZM222.099 252.729L211.518 266.024L208.148 265.092L211.932 260.54L210.508 249.52L214.005 250.488L214.598 257.532L218.711 251.791L222.099 252.729ZM235.375 261.727C235.293 262.02 235.191 262.32 235.066 262.628L227.98 260.666C227.853 261.314 227.919 261.858 228.178 262.298C228.453 262.729 228.853 263.017 229.378 263.162C230.159 263.379 230.794 263.199 231.282 262.625L234.614 263.547C234.258 264.171 233.779 264.689 233.179 265.102C232.59 265.517 231.918 265.784 231.162 265.904C230.407 266.023 229.614 265.968 228.783 265.738C227.782 265.461 226.95 265 226.287 264.357C225.624 263.713 225.183 262.934 224.963 262.019C224.743 261.104 224.781 260.115 225.075 259.053C225.369 257.991 225.839 257.122 226.486 256.447C227.145 255.775 227.925 255.334 228.824 255.123C229.724 254.912 230.68 254.947 231.693 255.227C232.682 255.501 233.504 255.952 234.158 256.58C234.812 257.208 235.246 257.966 235.461 258.853C235.687 259.744 235.658 260.702 235.375 261.727ZM232.398 260.016C232.547 259.479 232.482 259.001 232.204 258.582C231.925 258.163 231.512 257.878 230.962 257.726C230.437 257.58 229.949 257.61 229.499 257.813C229.06 258.021 228.721 258.393 228.48 258.931L232.398 260.016ZM241.996 266.38L241.261 269.035L239.668 268.594C238.533 268.279 237.724 267.76 237.241 267.035C236.762 266.297 236.696 265.3 237.044 264.043L238.17 259.978L236.925 259.633L237.644 257.033L238.89 257.377L239.579 254.887L242.71 255.754L242.021 258.244L244.072 258.812L243.352 261.412L241.301 260.844L240.165 264.946C240.081 265.251 240.093 265.491 240.203 265.666C240.312 265.841 240.537 265.976 240.879 266.07L241.996 266.38ZM252.145 260.929C253.317 261.254 254.149 261.904 254.641 262.882C255.136 263.847 255.196 265.007 254.821 266.362L253.168 272.331L250.055 271.469L251.591 265.921C251.78 265.238 251.75 264.658 251.501 264.181C251.252 263.705 250.828 263.384 250.23 263.218C249.632 263.052 249.103 263.11 248.645 263.39C248.186 263.671 247.862 264.153 247.673 264.836L246.136 270.385L243.005 269.518L246.757 255.967L249.888 256.834L248.585 261.54C249.028 261.176 249.561 260.936 250.184 260.82C250.808 260.703 251.462 260.74 252.145 260.929ZM260.041 262.09C259.492 261.938 259.084 261.654 258.818 261.239C258.568 260.815 258.508 260.364 258.64 259.888C258.775 259.4 259.058 259.045 259.487 258.822C259.933 258.59 260.43 258.55 260.979 258.703C261.516 258.851 261.91 259.138 262.161 259.562C262.427 259.977 262.493 260.429 262.357 260.917C262.226 261.394 261.937 261.747 261.492 261.979C261.062 262.202 260.579 262.239 260.041 262.09ZM261.304 263.583L258.475 273.801L255.344 272.934L258.173 262.716L261.304 263.583ZM261.536 269.148C261.83 268.086 262.301 267.217 262.948 266.542C263.607 265.87 264.38 265.427 265.267 265.213C266.167 265.002 267.117 265.035 268.118 265.312C269.4 265.667 270.375 266.298 271.044 267.206C271.725 268.118 272.03 269.221 271.961 270.516L268.628 269.593C268.564 268.734 268.129 268.193 267.323 267.97C266.749 267.811 266.229 267.91 265.762 268.267C265.299 268.612 264.952 269.2 264.722 270.03C264.492 270.86 264.486 271.548 264.703 272.094C264.923 272.629 265.32 272.975 265.893 273.134C266.699 273.357 267.35 273.117 267.848 272.413L271.18 273.336C270.58 274.458 269.753 275.241 268.697 275.684C267.641 276.128 266.478 276.174 265.208 275.823C264.207 275.545 263.375 275.085 262.712 274.441C262.061 273.801 261.626 273.024 261.406 272.108C261.199 271.197 261.242 270.21 261.536 269.148ZM275.947 278.796C275.056 278.549 274.305 278.177 273.693 277.679C273.082 277.181 272.648 276.614 272.39 275.977C272.136 275.329 272.076 274.668 272.209 273.995L275.304 274.852C275.243 275.216 275.328 275.549 275.56 275.85C275.792 276.151 276.122 276.36 276.549 276.478C276.94 276.587 277.259 276.596 277.507 276.507C277.771 276.409 277.937 276.238 278.004 275.994C278.085 275.701 277.992 275.445 277.724 275.226C277.459 274.995 277.009 274.7 276.372 274.34C275.687 273.966 275.126 273.62 274.688 273.302C274.254 272.971 273.916 272.556 273.673 272.055C273.434 271.542 273.411 270.937 273.604 270.241C273.766 269.655 274.072 269.168 274.521 268.78C274.986 268.383 275.568 268.13 276.268 268.022C276.981 267.917 277.771 267.984 278.637 268.224C279.919 268.579 280.838 269.175 281.395 270.013C281.964 270.854 282.158 271.815 281.977 272.895L279.084 272.094C279.133 271.726 279.052 271.402 278.841 271.12C278.642 270.841 278.329 270.643 277.902 270.524C277.536 270.423 277.235 270.419 276.999 270.511C276.766 270.591 276.616 270.753 276.549 270.998C276.468 271.291 276.559 271.552 276.824 271.783C277.101 272.018 277.548 272.3 278.167 272.629C278.87 273.033 279.432 273.399 279.854 273.727C280.28 274.041 280.61 274.462 280.846 274.987C281.097 275.503 281.131 276.117 280.947 276.829C280.782 277.427 280.462 277.917 279.988 278.298C279.53 278.671 278.947 278.903 278.238 278.996C277.541 279.092 276.777 279.026 275.947 278.796Z" fill="black" fill-opacity="0.78"/>
<ellipse cx="74.5" cy="147" rx="24.5" ry="24" fill="#E9EE8A"/>
<ellipse cx="299" cy="206.5" rx="24" ry="24.5" fill="#FAB2EA"/>
<ellipse cx="222.5" cy="46" rx="24.5" ry="24" fill="#ECE2D7"/>
<path d="M231 47.8485V54.9236H223.629C221.075 54.9236 218.626 53.8862 216.82 52.0396C215.014 50.193 214 47.6885 214 45.0771V38H221.366C223.919 38.0005 226.368 39.0381 228.173 40.8846C229.979 42.731 230.994 45.2352 230.994 47.8465L231 47.8485Z" fill="black"/>
<path d="M63 147.246L68.9382 148.946L63 150.646L69.184 150.628L63.9722 153.909L69.9003 152.175L65.8375 156.769L71.0303 153.46L68.4452 158.995L72.4818 154.38L71.5844 160.408L74.1376 154.858L75 160.892L75.8624 154.858L78.4156 160.408L77.5182 154.38L81.5541 158.995L78.9697 153.46L84.1625 156.769L80.0997 152.175L86.0278 153.909L80.816 150.628L87 150.646L81.0618 148.946L87 147.246L80.816 147.263L86.0278 143.983L80.0997 145.717L84.1625 141.123L78.9697 144.432L81.5541 138.897L77.5182 143.513L78.4156 137.484L75.8624 143.034L75 137L74.1376 143.034L71.5844 137.484L72.4818 143.513L68.4452 138.897L71.0303 144.432L65.8375 141.123L69.9003 145.717L63.9722 143.983L69.184 147.263L63 147.246Z" fill="black"/>
<path d="M302.431 199.022C300.906 198.881 299.506 199.437 298.5 200.415C297.494 199.439 296.094 198.881 294.569 199.022C292.197 199.24 290.275 201.179 290.028 203.601C289.922 204.649 290.125 205.64 290.553 206.496C290.763 206.913 291.036 207.294 291.36 207.628L298.5 214.928L305.64 207.628C305.964 207.296 306.237 206.915 306.447 206.496C306.875 205.642 307.078 204.651 306.972 203.601C306.725 201.179 304.803 199.24 302.431 199.022Z" fill="black"/>
</svg>
