<svg width="48" height="49" viewBox="0 0 48 49" fill="none" xmlns="http://www.w3.org/2000/svg">
<ellipse cx="24" cy="24.5" rx="24" ry="24.5" fill="#FAB2EA"/>
<path d="M21.6497 23.3599V20.2676L21.8538 20.2808V26.949L21.6648 26.9679V23.8605H16.0819V25.9233C16.0819 28.8494 16.1121 31.7793 16.0705 34.7016C16.0592 35.4893 16.286 35.7953 17.076 35.7028C17.506 35.646 17.9433 35.7034 18.3441 35.869H10V35.6971H12.079V12.3752C12.079 10.9906 12.232 11.1492 10.7938 11.136C10.5422 11.1563 10.2898 11.1094 10.0624 11H26.0117V17.8666L25.8737 17.9327C25.698 17.5719 25.4957 17.2206 25.3502 16.8503C24.7038 15.2031 24.0556 13.5558 23.447 11.8954C23.258 11.3608 23.0104 11.1039 22.3849 11.119C20.527 11.1662 18.6692 11.1473 16.8114 11.1285C16.3011 11.1285 16.0705 11.2701 16.0743 11.8217C16.0913 15.5034 16.0857 19.1889 16.0932 22.8669C16.1081 23.0331 16.1359 23.1979 16.1764 23.3599H21.6497Z" fill="#212121"/>
<path d="M24.3854 20.3203C27.2751 21.671 30.1838 22.9782 33.0414 24.3874C34.8444 25.2752 36.466 26.4861 37.0103 28.5432C37.8078 31.5033 36.9347 34.0535 33.7974 35.6384C30.0023 37.5596 26.109 37.45 22.3178 35.4306C22.2478 35.3928 22.2082 35.2946 22.0664 35.1095C22.9717 35.4873 23.739 35.8651 24.5441 36.1201C26.8952 36.8757 29.269 36.9475 31.6088 36.0823C33.1396 35.5156 34.2887 34.4937 34.5477 32.8408C34.8293 31.0405 33.9542 29.6105 32.4687 28.7265C30.778 27.7407 29.0248 26.8662 27.2203 26.1083C24.4062 24.9031 24.3854 24.9541 24.3854 21.9203V20.3203Z" fill="#212121"/>
<path d="M34.1157 13.214C32.3845 11.7349 30.436 11.3552 28.4326 11.1229C30.8896 10.6129 34.8585 12.6247 35.7449 14.8613C35.9103 15.3226 35.9641 15.8165 35.9017 16.3026C35.7411 17.674 34.4162 18.4806 32.7096 18.3125C31.5321 18.1973 30.4114 16.9109 30.4416 15.717C30.4813 14.4721 31.6644 13.2764 32.9269 13.2159C33.269 13.2008 33.5979 13.214 34.1157 13.214Z" fill="#212121"/>
</svg>
