<svg width="75" height="63" viewBox="0 0 75 63" fill="none" xmlns="http://www.w3.org/2000/svg">
<path d="M32.6 33.5V61.1C32.6 61.7 32.1 62.1 31.6 62.1H1C0.4 62.1 0 61.6 0 61.1V13.7C0 6.4 5.8 0.4 13 0C13.2 0 13.4 0 13.5 0H23.6C24.2 0 24.6 0.5 24.6 1V12.7C24.6 13.3 24.1 13.7 23.6 13.7H14.5C13.9 13.7 13.5 14.2 13.5 14.7V32.4H31.5C32.1 32.5 32.6 32.9 32.6 33.5Z" fill="#282828"/>
<path d="M74.2001 33.5V61.1C74.2001 61.7 73.7001 62.1 73.2001 62.1H42.6001C42.0001 62.1 41.6001 61.6 41.6001 61.1V13.7C41.6001 6.4 47.4001 0.4 54.6001 0C54.8001 0 55.0001 0 55.1001 0H65.2001C65.8001 0 66.2001 0.5 66.2001 1V12.7C66.2001 13.3 65.7001 13.7 65.2001 13.7H56.2001C55.6001 13.7 55.2001 14.2 55.2001 14.7V32.4H73.2001C73.7001 32.5 74.2001 32.9 74.2001 33.5Z" fill="#282828"/>
</svg>
