<svg width="45" height="45" viewBox="0 0 45 45" fill="none" xmlns="http://www.w3.org/2000/svg">
<circle cx="22.5" cy="22.5" r="22.5" fill="#212121"/>
<path d="M8 13V32H16.6444C17.4454 32 22.9615 31.8275 22.9615 26.4797C22.9615 23.1379 20.7966 22.0025 19.6972 21.6655C20.5057 21.2603 22.1152 20.2975 22.1152 17.7179C22.1152 16.2817 21.9225 13 16.4026 13H8ZM27.7069 14.7652V16.4983H34.3867V14.7652H27.7069ZM11.9293 16.2416H15.6168C15.9644 16.2416 18.3068 16.045 18.3068 18.424C18.3068 20.458 16.6142 20.6706 15.919 20.6706H11.9293V16.2416ZM31.2131 18.0709C26.1616 18.0709 25.1075 22.7287 25.1075 24.7466C25.1075 30.7363 29.732 31.4223 31.2131 31.4223C35.2066 31.4223 36.34 28.6782 36.8047 27.1537H33.9031C33.7898 27.5469 32.9435 28.8226 31.334 28.8226C28.6363 28.8226 28.4021 26.584 28.4021 25.5811H36.9861C37.1599 22.1149 35.7317 18.0709 31.2131 18.0709ZM31.1224 20.6706C31.9271 20.6706 32.577 20.9193 32.9661 21.3767C33.3553 21.838 33.6424 22.512 33.7218 23.3986H28.4021C28.4172 23.1539 28.4701 22.8731 28.5532 22.5642C28.6363 22.2473 28.7648 21.9464 28.9764 21.6655C29.188 21.3887 29.4827 21.148 29.8227 20.9595C30.1703 20.7669 30.601 20.6706 31.1224 20.6706ZM11.9293 23.527H16.1911C17.0374 23.527 19.0322 23.6674 19.0322 26.2551C19.0322 28.7625 16.5198 28.7584 16.1306 28.7584H11.9293V23.527Z" fill="white"/>
</svg>
