<svg width="27" height="19" viewBox="0 0 27 19" fill="none" xmlns="http://www.w3.org/2000/svg">
<path d="M16.3767 2.74143L22.3164 8.64046H1.84285V8.64012L1.82971 8.64081C1.53883 8.65612 1.26454 8.78153 1.06351 8.99182C0.86242 9.20217 0.75 9.48141 0.75 9.7721C0.75 10.0628 0.86242 10.342 1.06351 10.5524C1.26454 10.7627 1.53883 10.8881 1.82971 10.9034L1.82969 10.9037H1.84285H22.3152L16.3594 16.8026L16.3594 16.8026L16.3552 16.8068C16.1498 17.0202 16.0349 17.3044 16.0349 17.6002C16.0349 17.8961 16.1498 18.1802 16.3552 18.3936L16.3552 18.3936L16.359 18.3974C16.4643 18.5022 16.5893 18.5853 16.7268 18.6419C16.8643 18.6985 17.0116 18.7276 17.1603 18.7276C17.3091 18.7276 17.4564 18.6985 17.5939 18.6419C17.7313 18.5853 17.8563 18.5023 17.9616 18.3975C17.9616 18.3975 17.9617 18.3975 17.9617 18.3974L25.8599 10.5624C25.9674 10.4593 26.0531 10.3357 26.1118 10.1988C26.1708 10.0612 26.2012 9.91311 26.2012 9.76342C26.2012 9.61373 26.1708 9.46563 26.1118 9.328C26.0531 9.19116 25.9674 9.06754 25.8598 8.96439L17.9789 1.14652C17.879 1.03014 17.7563 0.935196 17.6185 0.867365C17.477 0.797767 17.3226 0.758211 17.165 0.751148C17.0074 0.744085 16.8501 0.769665 16.7029 0.826304C16.5558 0.882945 16.422 0.969436 16.3101 1.08038C16.1983 1.19133 16.1109 1.32429 16.0535 1.47087C15.9962 1.61745 15.9703 1.77434 15.9774 1.93152C15.9846 2.08869 16.0247 2.24259 16.0951 2.38339C16.1637 2.52059 16.2595 2.64236 16.3767 2.74143Z" fill="#212121" stroke="black" stroke-width="0.5"/>
</svg>
