<svg width="45" height="45" viewBox="0 0 45 45" fill="none" xmlns="http://www.w3.org/2000/svg">
<circle cx="22.5" cy="22.5" r="22.5" fill="#212121"/>
<path d="M23.913 18.0735V20.0207L25.4957 18.8862C26.1558 18.413 27.2272 17.857 28.6382 17.857C30.1598 17.857 31.2058 18.494 31.9019 19.4398C32.6237 20.4204 33 21.7845 33 23.2073V31H29.7391V23.94C29.7391 22.2862 28.4989 20.905 26.8737 20.7576C26.7505 20.7412 26.642 20.7416 26.5974 20.7418C26.5934 20.7418 26.5899 20.7419 26.587 20.7419C26.584 20.7419 26.5805 20.7418 26.5765 20.7418C26.5319 20.7416 26.4234 20.7412 26.3002 20.7576C24.675 20.905 23.4348 22.2862 23.4348 23.94V24.0622V24.1843V31H20.1739V17.857H23.913V18.0735ZM13.0047 13.4128C13.0047 12.7219 13.5947 12 14.8696 12C16.0528 12 16.6794 12.6645 16.7342 13.4115C16.7198 14.1746 16.1016 14.8753 14.8696 14.8753C13.6435 14.8753 13.0047 14.1258 13.0047 13.4128ZM13 31V17.857H16.7391V31H13Z" fill="white" stroke="white" stroke-width="2"/>
</svg>
