<svg width="48" height="49" viewBox="0 0 48 49" fill="none" xmlns="http://www.w3.org/2000/svg">
<ellipse cx="24" cy="24.5" rx="24" ry="24.5" fill="#FAB2EA"/>
<path d="M21.6412 24.922V21.689L21.8451 21.7028V28.6744L21.6563 28.6941V25.4453H16.0774V27.602C16.0774 30.6611 16.1076 33.7243 16.0661 36.7795C16.0548 37.603 16.2814 37.923 17.0708 37.8262C17.5005 37.7669 17.9375 37.8268 18.3381 38H10V37.8203H12.0774V13.4378C12.0774 11.9901 12.2304 12.156 10.7932 12.1422C10.5418 12.1634 10.2896 12.1143 10.0623 12H26V19.1789L25.8621 19.248C25.6865 18.8708 25.4844 18.5035 25.339 18.1164C24.6931 16.3942 24.0453 14.6721 23.4372 12.9361C23.2483 12.3772 23.0009 12.1086 22.3758 12.1244C20.5194 12.1738 18.6629 12.154 16.8064 12.1343C16.2965 12.1343 16.0661 12.2824 16.0699 12.8591C16.0869 16.7082 16.0812 20.5613 16.0888 24.4065C16.1037 24.5803 16.1315 24.7527 16.1719 24.922H21.6412Z" fill="#212121"/>
<path d="M24.3854 21.3203C27.2751 22.671 30.1838 23.9782 33.0414 25.3874C34.8444 26.2752 36.466 27.4861 37.0103 29.5432C37.8078 32.5033 36.9347 35.0535 33.7974 36.6384C30.0023 38.5596 26.109 38.45 22.3178 36.4306C22.2478 36.3928 22.2082 36.2946 22.0664 36.1095C22.9717 36.4873 23.739 36.8651 24.5441 37.1201C26.8952 37.8757 29.269 37.9475 31.6088 37.0823C33.1396 36.5156 34.2887 35.4937 34.5477 33.8408C34.8293 32.0405 33.9542 30.6105 32.4687 29.7265C30.778 28.7407 29.0248 27.8662 27.2203 27.1083C24.4062 25.9031 24.3854 25.9541 24.3854 22.9203V21.3203Z" fill="#212121"/>
<path d="M34.1157 14.214C32.3845 12.7349 30.436 12.3552 28.4326 12.1229C30.8896 11.6129 34.8585 13.6247 35.7449 15.8613C35.9103 16.3226 35.9641 16.8165 35.9017 17.3026C35.7411 18.674 34.4162 19.4806 32.7096 19.3125C31.5321 19.1973 30.4114 17.9109 30.4416 16.717C30.4813 15.4721 31.6644 14.2764 32.9269 14.2159C33.269 14.2008 33.5979 14.214 34.1157 14.214Z" fill="#212121"/>
</svg>
