<svg width="45" height="45" viewBox="0 0 45 45" fill="none" xmlns="http://www.w3.org/2000/svg">
<circle cx="22.5" cy="22.5" r="22.5" fill="#212121"/>
<path fill-rule="evenodd" clip-rule="evenodd" d="M13.7623 16.8722C13.7914 16.5783 13.6817 16.2884 13.4682 16.0912L11.2941 13.4015V13H18.0474L23.2673 24.7501L27.8562 13H34.2941V13.4015L32.4345 15.2315C32.2743 15.357 32.1947 15.5632 32.2277 15.7674V29.214C32.1947 29.4172 32.2743 29.6234 32.4345 29.7489L34.2504 31.5789V31.9804H25.1153V31.5789L26.9972 29.7041C27.1816 29.5148 27.1816 29.459 27.1816 29.1691V18.3007L21.9511 31.9366H21.2446L15.1541 18.3007V27.4398C15.1036 27.8233 15.2279 28.2108 15.4909 28.4878L17.9378 31.5341V31.9366H11V31.5341L13.4469 28.4878C13.7089 28.2098 13.8254 27.8203 13.7623 27.4398V16.8722Z" fill="white"/>
</svg>
