<svg width="62" height="62" viewBox="0 0 62 62" fill="none" xmlns="http://www.w3.org/2000/svg">
<circle cx="31" cy="31" r="30.5" stroke="#282828"/>
<path d="M23.0088 30.5421C23.0399 30.3274 23.1378 30.1279 23.2887 29.972L31.5539 21.3666C31.6447 21.2591 31.7566 21.1712 31.8826 21.1084C32.0086 21.0457 32.146 21.0093 32.2866 21.0016C32.4272 20.9938 32.5678 21.0149 32.7 21.0634C32.8321 21.112 32.9529 21.187 33.055 21.2839C33.1571 21.3808 33.2383 21.4975 33.2936 21.6269C33.3489 21.7562 33.3772 21.8956 33.3767 22.0363C33.3763 22.177 33.347 22.3161 33.2908 22.4451C33.2346 22.5741 33.1526 22.6903 33.0499 22.7865L25.4626 30.6819L33.0499 38.5774C33.1526 38.6736 33.2346 38.7898 33.2908 38.9188C33.347 39.0478 33.3763 39.1869 33.3767 39.3276C33.3772 39.4683 33.3489 39.6076 33.2936 39.737C33.2383 39.8664 33.1571 39.9831 33.055 40.08C32.9529 40.1769 32.8321 40.2519 32.7 40.3005C32.5678 40.349 32.4272 40.3701 32.2866 40.3623C32.146 40.3546 32.0086 40.3182 31.8826 40.2554C31.7566 40.1927 31.6447 40.1048 31.5539 39.9973L23.2887 31.3919C23.1813 31.2803 23.1004 31.146 23.0519 30.9989C23.0035 30.8518 22.9888 30.6957 23.0088 30.5421Z" fill="#282828"/>
</svg>
