<svg width="62" height="62" viewBox="0 0 62 62" fill="none" xmlns="http://www.w3.org/2000/svg">
<circle cx="31" cy="31" r="30.5" transform="rotate(-180 31 31)" stroke="#282828"/>
<path d="M37.3679 30.8216C37.3368 31.0363 37.2389 31.2358 37.0881 31.3918L28.8228 39.9972C28.732 40.1047 28.6201 40.1926 28.4941 40.2553C28.3682 40.3181 28.2307 40.3545 28.0901 40.3622C27.9495 40.3699 27.8089 40.3489 27.6767 40.3004C27.5446 40.2518 27.4238 40.1768 27.3217 40.0799C27.2196 39.983 27.1384 39.8663 27.0831 39.7369C27.0278 39.6075 26.9995 39.4682 27 39.3275C27.0004 39.1868 27.0297 39.0477 27.0859 38.9187C27.1421 38.7897 27.2241 38.6735 27.3268 38.5773L34.9141 30.6818L27.3268 22.7864C27.2241 22.6902 27.1421 22.574 27.0859 22.445C27.0297 22.316 27.0004 22.1769 27 22.0362C26.9995 21.8955 27.0278 21.7561 27.0831 21.6267C27.1384 21.4974 27.2196 21.3806 27.3217 21.2838C27.4238 21.1869 27.5446 21.1118 27.6767 21.0633C27.8089 21.0147 27.9495 20.9937 28.0901 21.0014C28.2307 21.0092 28.3682 21.0456 28.4941 21.1083C28.6201 21.1711 28.732 21.2589 28.8228 21.3665L37.0881 29.9719C37.1955 30.0835 37.2763 30.2178 37.3248 30.3649C37.3732 30.512 37.388 30.6681 37.3679 30.8216Z" fill="#282828"/>
</svg>
